This Crime series follows Matt Passmore as Jim, a Chicago cop who gets kicked off the force after being shot and wrongfully accused by his ex-captain of having an affair with his wife. 
After receiving his payout, Jim decides to moves to a small Florida town to join the state police.

General
Complete name : The Glades S02E01 - Family Matters
Format : MPEG-4
Format profile : Base Media / Version 2
Codec ID : mp42
File size : 189 MiB
Duration : 43mn 25s
Overall bit rate mode : Variable
Overall bit rate : 607 Kbps
Movie name : Family Matters
Album : The Glades
Track name/Position : 1
Track name/Total : 13
Performer : Matt Passmore, Kiele Sanchez, Carlos Gómez, Uriah Shelton, Jordan Wall
Genre : Action, Adventure, Drama
Recorded date : 2011-6-5
Encoded date : UTC 2012-02-24 11:24:13
Tagged date : UTC 2012-02-25 00:45:21
Writing application : HandBrake 0.9.5 2011010300
tvsh : The Glades
tvnn : A&E
tven : Family Matters
tvsn : 2
tves : 1
desc : Callie and Jeff get ready for Ray\'s release from prison while Jim must solve the death of a mobster\'s daughter.
ldes : Callie and Jeff get ready for Ray\'s release from prison while Jim must solve the death of a mobster\'s daughter.
stik : 10
Video
ID : 1
Format : AVC
Format/Info : Advanced Video Codec
Format profile : High@L3.1
Format settings, CABAC : Yes
Format settings, ReFrames : 6 frames
Codec ID : avc1
Codec ID/Info : Advanced Video Coding
Duration : 43mn 25s
Bit rate mode : Variable
Bit rate : 441 Kbps
Width : 848 pixels
Height : 480 pixels
Display aspect ratio : 16:9
Frame rate mode : Variable
Frame rate : 23.976 fps
Minimum frame rate : 23.438 fps
Maximum frame rate : 24.390 fps
Color space : YUV
Chroma subsampling : 4:2:0
Bit depth : 8 bits
Scan type : Progressive
Bits/(Pixel*Frame) : 0.045
Stream size : 137 MiB (73%)
Writing library : x264 core 112
Audio
ID : 2
Format : AAC
Format/Info : Advanced Audio Codec
Format profile : LC
Codec ID : 40
Duration : 43mn 25s
Bit rate mode : Variable
Bit rate : 160 Kbps
Maximum bit rate : 263 Kbps
Channel(s) : 2 channels
Channel positions : Front: L R
Sampling rate : 48.0 KHz
Compression mode : Lossy
Stream size : 49.7 MiB (26%)
Encoded date : UTC 2012-02-24 11:24:13
Tagged date : UTC 2012-02-24 12:11:26
Text
ID : 3
Format : Timed text
Muxing mode : sbtl
Codec ID : tx3g
Duration : 43mn 22s
Bit rate mode : Variable
Bit rate : 117 bps
Stream size : 37.3 KiB (0%)
Language : English
Encoded date : UTC 2012-02-24 11:24:13
Tagged date : UTC 2012-02-24 12:11:24


Sample Included










